<svg height="512" viewBox="0 0 64 64" width="512" xmlns="http://www.w3.org/2000/svg"><g id="Battle-Winner-Competition-Video_Game-Multiplayer" data-name="Battle-Winner-Competition-Video Game-Multiplayer"><path d="m59 47-.14 2-.86 12h-20l-.86-12-.14-2z" fill="#a97c50"/><path d="m19 39.88v3.12h-16v-3.12a3.991 3.991 0 0 1 2.73-3.79l3.27-1.09a2 2 0 0 0 4 0l3.27 1.09a3.991 3.991 0 0 1 2.73 3.79z" fill="#3d9ae2"/><path d="m7 31h-2a2.015 2.015 0 0 1 -2-2 2 2 0 0 1 2-2h2z" fill="#ee8700"/><path d="m19 29a2.015 2.015 0 0 1 -2 2h-2v-4h2a2 2 0 0 1 2 2z" fill="#ee8700"/><path d="m15 27v2h-.76a1.989 1.989 0 0 1 -1.79-1.11l-.45-.89-.24.24a5.993 5.993 0 0 1 -4.25 1.76h-.51v-2a4 4 0 0 1 8 0z" fill="#57565c"/><path d="m13 33v2a2 2 0 0 1 -4 0v-2z" fill="#ffc477"/><path d="m13 33v1.46a3.974 3.974 0 0 1 -4 0v-1.46z" fill="#ffb655"/><path d="m15 29v1a4 4 0 0 1 -8 0v-1h.51a5.993 5.993 0 0 0 4.25-1.76l.24-.24.45.89a1.989 1.989 0 0 0 1.79 1.11z" fill="#ffc477"/><path d="m61 39.88v3.12h-16v-3.12a3.991 3.991 0 0 1 2.73-3.79l3.27-1.09a2 2 0 0 0 4 0l3.27 1.09a3.991 3.991 0 0 1 2.73 3.79z" fill="#ff6243"/><path d="m49 31h-2a2.015 2.015 0 0 1 -2-2 2 2 0 0 1 2-2h2z" fill="#ee8700"/><path d="m61 29a2.015 2.015 0 0 1 -2 2h-2v-4h2a2 2 0 0 1 2 2z" fill="#ee8700"/><path d="m57 27v2h-.76a1.989 1.989 0 0 1 -1.79-1.11l-.45-.89-.24.24a5.993 5.993 0 0 1 -4.25 1.76h-.51v-2a4 4 0 0 1 8 0z" fill="#57565c"/><path d="m55 33v2a2 2 0 0 1 -4 0v-2z" fill="#ffc477"/><path d="m55 33v1.46a3.974 3.974 0 0 1 -4 0v-1.46z" fill="#ffb655"/><path d="m57 29v1a4 4 0 0 1 -8 0v-1h.51a5.993 5.993 0 0 0 4.25-1.76l.24-.24.45.89a1.989 1.989 0 0 0 1.79 1.11z" fill="#ffc477"/><circle cx="48" cy="54" fill="#ff6243" r="2"/><path d="m61 43v4h-2-22-2v-4h6 4z" fill="#a97c50"/><path d="m19 39v.88a3.654 3.654 0 0 0 -.1-.88z" fill="#bddbff"/><path d="m27 47-.14 2-.86 12h-20l-.86-12-.14-2z" fill="#a97c50"/><circle cx="16" cy="54" fill="#3d9ae2" r="2"/><path d="m29 43v4h-2-22-2v-4h16 4z" fill="#a97c50"/><path d="m17 31h-2.13-.87v1.64 2.69 3.67h4.9.1 4 5v-8z" fill="#acabb1"/><path d="m24 7v5l-.97-.24a4.009 4.009 0 0 1 -3.03-3.88v-2.88h4z" fill="#ffa733"/><path d="m40.97 11.76-.97.24v-7h4v2.88a4.009 4.009 0 0 1 -3.03 3.88z" fill="#ffa733"/><path d="m40 13a4 4 0 0 1 -4 4h-8a4 4 0 0 1 -4-4v-6h16z" fill="#ff9811"/><path d="m30 17h4v6h-4z" fill="#ff9811"/><path d="m38 25v2h-12v-2a2.006 2.006 0 0 1 2-2h8a2.006 2.006 0 0 1 2 2z" fill="#cc7400"/><path d="m40 5v2h-16v-2-2h16z" fill="#ff9811"/><path d="m19 36h4v7h-4z" fill="#d8d7da"/><path d="m19 39v.88a3.654 3.654 0 0 0 -.1-.88z" fill="#bddbff"/><path d="m17 31h-2.13-.87v1.64 2.69 3.67h4.9.1 4 5v-8z" fill="#acabb1"/><path d="m19 36h4v7h-4z" fill="#d8d7da"/><path d="m41 39v.88a3.654 3.654 0 0 0 -.1-.88z" fill="#bddbff"/><path d="m39 31h-2.13-.87v1.64 2.69 3.67h4.9.1 4 5v-8z" fill="#acabb1"/><path d="m41 36h4v7h-4z" fill="#d8d7da"/><path d="m41 39v.88a3.654 3.654 0 0 0 -.1-.88z" fill="#bddbff"/><path d="m39 31h-2.13-.87v1.64 2.69 3.67h4.9.1 4 5v-8z" fill="#acabb1"/><path d="m41 36h4v7h-4z" fill="#d8d7da"/><path d="m30 17h4v2h-4z" fill="#ee8700"/><path d="m24 7h16v2h-16z" fill="#ee8700"/><path d="m27 47-.14 2h-21.72l-.14-2z" fill="#8b5e3c"/><path d="m59 47-.14 2h-21.72l-.14-2z" fill="#8b5e3c"/><path d="m29 42h-5v-2h4a1 1 0 0 0 1-1v-8a1 1 0 0 0 -1-1h-8.18a3.051 3.051 0 0 0 .18-1 2.986 2.986 0 0 0 -1-2.22v-.78a8 8 0 1 0 -16 0v.78a2.986 2.986 0 0 0 -1 2.22 3 3 0 0 0 3 3h1.42a5 5 0 0 0 1.58 1.97v.31l-2.58.86a4.978 4.978 0 0 0 -3.42 4.74v7.12a1 1 0 0 0 1 1h1.07l.93 13.07a1.011 1.011 0 0 0 1 .93h20a1.011 1.011 0 0 0 1-.93l.93-13.07h1.07a1 1 0 0 0 1-1v-4a1 1 0 0 0 -1-1zm-2-10v6h-3v-2a1 1 0 0 0 -1-1h-4a1 1 0 0 0 -1 1v2h-3v-6zm-5 5v5h-2v-5zm-4-8a.949.949 0 0 1 -.31.71.928.928 0 0 1 -.69.29h-1v-2h1a1 1 0 0 1 1 1zm-12 1h-1a.949.949 0 0 1 -.71-.31.928.928 0 0 1 -.29-.69 1 1 0 0 1 1-1h1zm.1-4h-1.1a6.009 6.009 0 0 1 6-6 6 6 0 0 1 6 6h-1.1a5 5 0 0 0 -9.8 0zm4.9 7a3.009 3.009 0 0 1 -3-3v-.04a6.92 6.92 0 0 0 3.7-1.35 2.968 2.968 0 0 0 2.3 1.36v.03a1 1 0 0 0 -1 1v1.22a2.991 2.991 0 0 1 -2 .78zm1 1.9v.1a1 1 0 0 1 -2 0v-.1a5.468 5.468 0 0 0 1 .1 5.558 5.558 0 0 0 1-.1zm1.34-7.45-.45-.9a1 1 0 0 0 -.73-.54 1.011 1.011 0 0 0 -.87.28l-.24.25a4.979 4.979 0 0 1 -3.05 1.41v-.95a3 3 0 0 1 6 0v.97a.988.988 0 0 1 -.66-.52zm-9.34 12.43a2.978 2.978 0 0 1 2.05-2.84l2.25-.75a2.974 2.974 0 0 0 4.7.93v1.78a1 1 0 0 0 1 1h4v2h-14zm21.07 20.12h-18.14l-.86-12h19.86zm2.93-14h-24v-2h24z"/><path d="m16 57a3 3 0 1 0 -3-3 3 3 0 0 0 3 3zm0-4a1 1 0 1 1 -1 1 1 1 0 0 1 1-1z"/><path d="m48 57a3 3 0 1 0 -3-3 3 3 0 0 0 3 3zm0-4a1 1 0 1 1 -1 1 1 1 0 0 1 1-1z"/><path d="m58.59 35.14-2.59-.86v-.31a4.513 4.513 0 0 0 .54-.44 4.856 4.856 0 0 0 1.03-1.53h1.43a3 3 0 0 0 3-3 2.986 2.986 0 0 0 -1-2.22v-.78a8 8 0 1 0 -16 0v.78a2.986 2.986 0 0 0 -1 2.22 3.051 3.051 0 0 0 .18 1h-8.18a1 1 0 0 0 -1 1v8a1 1 0 0 0 1 1h4v2h-5a1 1 0 0 0 -1 1v4a1 1 0 0 0 1 1h1.07l.93 13.07a1.011 1.011 0 0 0 1 .93h20a1.011 1.011 0 0 0 1-.93l.93-13.07h1.07a1 1 0 0 0 1-1v-7.12a4.982 4.982 0 0 0 -3.41-4.74zm-2.59-5.14a2.988 2.988 0 0 1 -4.5 2.59 2.7 2.7 0 0 1 -.5-.37v-1.22a1 1 0 0 0 -1-1v-.04a6.92 6.92 0 0 0 3.7-1.35 2.968 2.968 0 0 0 2.3 1.36zm-2 4.9v.1a1 1 0 0 1 -2 0v-.11a4.815 4.815 0 0 0 2 .01zm2-6.93a.988.988 0 0 1 -.66-.52l-.45-.9a1 1 0 0 0 -.73-.54 1.011 1.011 0 0 0 -.87.28l-.24.25a4.979 4.979 0 0 1 -3.05 1.41v-.95a3 3 0 0 1 6 0zm4 1.03a.949.949 0 0 1 -.31.71.928.928 0 0 1 -.69.29h-1v-2h1a1 1 0 0 1 1 1zm-11.24-7.24a5.928 5.928 0 0 1 4.24-1.76 6 6 0 0 1 6 6h-1.1a5 5 0 0 0 -9.8 0h-1.1a5.928 5.928 0 0 1 1.76-4.24zm-1.76 6.24h1v2h-1a.949.949 0 0 1 -.71-.31.928.928 0 0 1 -.29-.69 1 1 0 0 1 1-1zm-10 10v-6h12v6h-3v-2a1 1 0 0 0 -1-1h-4a1 1 0 0 0 -1 1v2zm7-1v5h-2v-5zm13.07 23h-18.14l-.86-12h19.86zm2.93-14h-24v-2h24zm0-4h-14v-2h4a1 1 0 0 0 1-1v-1.78a2.974 2.974 0 0 0 4.7-.93l2.26.75a2.982 2.982 0 0 1 2.04 2.84z"/><path d="m44 4h-3v-1a1 1 0 0 0 -1-1h-16a1 1 0 0 0 -1 1v1h-3a1 1 0 0 0 -1 1v2.88a5 5 0 0 0 3.79 4.85l.21.05v.22a5 5 0 0 0 5 5h1v4h-1a3.009 3.009 0 0 0 -3 3v2a1 1 0 0 0 1 1h12a1 1 0 0 0 1-1v-2a3.009 3.009 0 0 0 -3-3h-1v-4h1a5 5 0 0 0 5-5v-.22l.21-.05a5 5 0 0 0 3.79-4.85v-2.88a1 1 0 0 0 -1-1zm-21 6.71a3 3 0 0 1 -2-2.83v-1.88h2zm13 13.29a1 1 0 0 1 1 1v1h-10v-1a1 1 0 0 1 1-1zm-5-2v-4h2v4zm8-9a3.009 3.009 0 0 1 -3 3h-8a3.009 3.009 0 0 1 -3-3v-5h14zm0-7h-14v-2h14zm4 1.88a3 3 0 0 1 -2 2.83v-4.71h2z"/></g></svg>